<?xml version="1.0" encoding="UTF-8" standalone="no"?>
<svg
   xmlns:dc="http://purl.org/dc/elements/1.1/"
   xmlns:cc="http://creativecommons.org/ns#"
   xmlns:rdf="http://www.w3.org/1999/02/22-rdf-syntax-ns#"
   xmlns:svg="http://www.w3.org/2000/svg"
   xmlns="http://www.w3.org/2000/svg"
   xmlns:sodipodi="http://sodipodi.sourceforge.net/DTD/sodipodi-0.dtd"
   xmlns:inkscape="http://www.inkscape.org/namespaces/inkscape"
   version="1.2"
   width="93.79mm"
   height="66.01mm"
   viewBox="4500 7299 9379 6601"
   preserveAspectRatio="xMidYMid"
   xml:space="preserve"
   id="cup"
   inkscape:version="0.91 r13725"
   sodipodi:docname="cup3.svg"
   stroke-linejoin="round"
   stroke-width="28.222"
   fill-rule="evenodd"><metadata
     id="metadata26"><rdf:RDF><cc:Work
         rdf:about=""><dc:format>image/svg+xml</dc:format><dc:type
           rdf:resource="http://purl.org/dc/dcmitype/StillImage" /><dc:title></dc:title></cc:Work></rdf:RDF></metadata><defs
     id="defs24" /><sodipodi:namedview
     pagecolor="#ffffff"
     bordercolor="#666666"
     borderopacity="1"
     objecttolerance="10"
     gridtolerance="10"
     guidetolerance="10"
     inkscape:pageopacity="0"
     inkscape:pageshadow="2"
     inkscape:window-width="795"
     inkscape:window-height="480"
     id="namedview22"
     showgrid="false"
     inkscape:zoom="1.0090053"
     inkscape:cx="148.81957"
     inkscape:cy="148.28061"
     inkscape:window-x="0"
     inkscape:window-y="28"
     inkscape:window-maximized="0"
     inkscape:current-layer="cup" /><g
     id="footCup"><path
       style="fill:#fff0f5;stroke:none"
       inkscape:connector-curvature="0"
       id="path3559"
       d="m 9176,12400 c 168,745 522,1288 965,1449 l 29,51 -3701,0 29,-52 c 443,-162 797,-704 964,-1448 l 1714,0 z" /></g><g
     id="gCup"
     class="Group"><g
       id="baseCup"><path
         style="fill:#fffaf0;stroke:none"
         inkscape:connector-curvature="0"
         id="path3568"
         d="m 12138,9300 c -217,2305 -1797,4000 -3819,4000 -2022,0 -3602,-1695 -3819,-4000 l 7638,0 z" /></g><g
       id="shadowCup"><path
         style="fill:#ffe4c4;stroke:none"
         inkscape:connector-curvature="0"
         id="path3575"
         d="m 7688,12700 c 2241,0 3990,-1442 4223,-3400 l 227,0 c -217,2305 -1797,4000 -3819,4000 -899,0 -1711,-335 -2355,-911 523,201 1105,311 1724,311 z" /></g></g><g
     id="asa"><path
       style="fill:#ffff70;stroke:none"
       inkscape:connector-curvature="0"
       id="path3582"
       d="m 11750,11264 c 552,-214 795,-108 1231,-473 259,-250 380,-775 -144,-1123 -344,-195 -618,-147 -795,-68 l 32,-94 c 166,-108 617,-353 1288,7 713,442 579,1066 248,1352 -561,413 -888,275 -1611,503 -361,116 -610,364 -771,610 l 166,-484 c 99,-94 218,-175 356,-230 z" /></g><g
     id="leftEye"><path
       style="fill:#333333;stroke:none"
       inkscape:connector-curvature="0"
       d="m 7088,10700 c 142,0 250,152 250,350 0,198 -108,350 -250,350 -142,0 -250,-152 -250,-350 0,-198 108,-350 250,-350 z m -250,0 0,0 z m 501,701 0,0 z"
       id="path13" /></g><g
     id="rightEye"><path
       style="fill:#333333;stroke:none"
       inkscape:connector-curvature="0"
       id="path3390"
       d="m 9388,10700 c 142,0 250,152 250,350 0,198 -108,350 -250,350 -142,0 -250,-152 -250,-350 0,-198 108,-350 250,-350 z m -250,0 0,0 z m 501,701 0,0 z" /></g><g
     id="mouth"><path
       style="fill:none;stroke:#1c1c1c"
       inkscape:connector-curvature="0"
       id="path3603"
       d="m 8538,12000 c -35,60 -75,103 -130,139 -63,42 -125,61 -198,61 -74,0 -136,-19 -199,-61 -52,-35 -91,-75 -126,-132 z" /></g><g
     id="heart"><path
       style="fill:#ff5555"
       d="m 8418.6376,7595.3047 a 339.04194,426.31057 58.038572 0 0 -303.1365,92.8986 430.26133,340.92488 31.308505 0 0 -527.6538,1.7663 430.26133,340.92488 31.308505 0 0 60.0038,495.0664 l -4.2473,4.2896 457.3482,478.539 475.2408,-478.3287 -1.4911,-1.556 a 339.04194,426.31057 58.038572 0 0 72.0678,-495.5291 339.04194,426.31057 58.038572 0 0 -228.1319,-97.1461 z"
       inkscape:connector-curvature="0"
       id="path20" /></g></svg>