<?xml version="1.0" encoding="UTF-8" standalone="no"?>
<!-- Generator: Adobe Illustrator 16.0.0, SVG Export Plug-In . SVG Version: 6.00 Build 0)  -->

<svg
   xmlns:dc="http://purl.org/dc/elements/1.1/"
   xmlns:cc="http://creativecommons.org/ns#"
   xmlns:rdf="http://www.w3.org/1999/02/22-rdf-syntax-ns#"
   xmlns:svg="http://www.w3.org/2000/svg"
   xmlns="http://www.w3.org/2000/svg"
   xmlns:sodipodi="http://sodipodi.sourceforge.net/DTD/sodipodi-0.dtd"
   xmlns:inkscape="http://www.inkscape.org/namespaces/inkscape"
   version="1.1"
   id="Capa_1"
   x="0px"
   y="0px"
   width="430.117"
   height="430.11801"
   viewBox="0 0 80 80"
   xml:space="preserve"
   inkscape:version="0.91 r13725"
   sodipodi:docname="LinkedIn.svg"><metadata
     id="metadata40"><rdf:RDF><cc:Work
         rdf:about=""><dc:format>image/svg+xml</dc:format><dc:type
           rdf:resource="http://purl.org/dc/dcmitype/StillImage" /></cc:Work></rdf:RDF></metadata><defs
     id="defs38" /><sodipodi:namedview
     pagecolor="#ffffff"
     bordercolor="#666666"
     borderopacity="1"
     objecttolerance="10"
     gridtolerance="10"
     guidetolerance="10"
     inkscape:pageopacity="0"
     inkscape:pageshadow="2"
     inkscape:window-width="795"
     inkscape:window-height="480"
     id="namedview36"
     showgrid="false"
     inkscape:zoom="0.30691011"
     inkscape:cx="85.561552"
     inkscape:cy="215.05901"
     inkscape:window-x="0"
     inkscape:window-y="28"
     inkscape:window-maximized="0"
     inkscape:current-layer="Capa_1" /><path
     inkscape:connector-curvature="0"
     d="m 74.350462,1.2120546 -67.8593747,0 c -3.2493817,0 -5.88306,2.5145995 -5.88306,5.6182419 l 0,67.1758845 c 0,3.103825 2.6346038,5.620612 5.88306,5.620612 l 67.8593747,0 c 3.248641,0 5.879358,-2.518428 5.879358,-5.620612 l 0,-67.1758845 c 0,-3.1027309 -2.630717,-5.6182419 -5.879358,-5.6182419 z m -49.603378,65.6384664 -12.030282,0 0,-35.403293 12.030282,0 0,35.403293 z m -6.013938,-40.239972 -0.0809,0 c -4.034283,0 -6.649449,-2.717147 -6.649449,-6.118865 0,-3.470268 2.691991,-6.11376 6.806245,-6.11376 4.114624,0 6.645562,2.642763 6.725533,6.11376 0,3.402448 -2.609984,6.118865 -6.801432,6.118865 z m 49.379569,40.239972 -12.026396,0 0,-18.941992 c 0,-4.759562 -1.742519,-8.00723 -6.091688,-8.00723 -3.327132,0 -5.302159,2.191 -6.169438,4.306341 -0.321366,0.755491 -0.400967,1.812159 -0.400967,2.867369 l 0,19.774782 -12.024175,0 c 0,0 0.15735,-32.082701 0,-35.403109 l 12.026026,0 0,5.019171 c 1.596462,-2.411776 4.449319,-5.852146 10.835715,-5.852146 7.91566,0 13.850923,5.057093 13.850923,15.936432 l 0,20.300382 z M 43.348328,36.578338 c 0.02054,-0.03318 0.04924,-0.07311 0.07774,-0.111938 l 0,0.111938 -0.07774,0 z"
     id="LinkedIn__x28_alt_x29_" /></svg>