<?xml version="1.0" encoding="UTF-8" standalone="no"?>
<svg
   xmlns:dc="http://purl.org/dc/elements/1.1/"
   xmlns:cc="http://creativecommons.org/ns#"
   xmlns:rdf="http://www.w3.org/1999/02/22-rdf-syntax-ns#"
   xmlns:svg="http://www.w3.org/2000/svg"
   xmlns="http://www.w3.org/2000/svg"
   xmlns:sodipodi="http://sodipodi.sourceforge.net/DTD/sodipodi-0.dtd"
   xmlns:inkscape="http://www.inkscape.org/namespaces/inkscape"
   version="1.2"
   width="93.79mm"
   height="66.01mm"
   viewBox="4500 7299 9379 6601"
   preserveAspectRatio="xMidYMid"
   xml:space="preserve"
   id="pinkie"
   stroke-linejoin="round"
   stroke-width="28.222"
   fill-rule="evenodd"
   inkscape:version="0.91 r13725"
   sodipodi:docname="pinkie.svg"><metadata
     id="metadata3354"><rdf:RDF><cc:Work
         rdf:about=""><dc:format>image/svg+xml</dc:format><dc:type
           rdf:resource="http://purl.org/dc/dcmitype/StillImage" /></cc:Work></rdf:RDF></metadata><defs
     id="defs3352" /><sodipodi:namedview
     pagecolor="#ffffff"
     bordercolor="#666666"
     borderopacity="1"
     objecttolerance="10"
     gridtolerance="10"
     guidetolerance="10"
     inkscape:pageopacity="0"
     inkscape:pageshadow="2"
     inkscape:window-width="1024"
     inkscape:window-height="552"
     id="namedview3350"
     showgrid="false"
     inkscape:zoom="1.3992252"
     inkscape:cx="137.67502"
     inkscape:cy="152.90098"
     inkscape:window-x="0"
     inkscape:window-y="28"
     inkscape:window-maximized="1"
     inkscape:current-layer="pinkie"
     showguides="false" /><path
     sodipodi:type="star"
     style="fill:#ffaaaa"
     id="pinkieBase"
     sodipodi:sides="5"
     sodipodi:cx="8779.4619"
     sodipodi:cy="10627.471"
     sodipodi:r1="3244.5593"
     sodipodi:r2="3073.5779"
     sodipodi:arg1="0.80978357"
     sodipodi:arg2="1.4381021"
     inkscape:flatsided="false"
     inkscape:rounded="0"
     inkscape:randomized="0"
     d="m 11017.089,12976.979 -1830.9769,697.05 -1949.7007,-192.41 -1228.7366,-1525.963 -419.4977,-1913.733 1071.5759,-1640.1466 1690.437,-990.3422 1891.007,512.2962 1464.245,1301.6685 97.131,1956.7631 z"
     inkscape:transform-center-x="98.847283"
     inkscape:transform-center-y="-87.010402"
     transform="matrix(1.1755349,0,0,1.0267975,-2015.3189,-254.54877)" /><g
     id="pinkieLeftEye"
     transform="translate(-27.970331,-531.43654)"
     style="fill:#483737"><path
       style="fill:#483737;stroke:none"
       inkscape:connector-curvature="0"
       d="m 7088,10700 c 142,0 250,152 250,350 0,198 -108,350 -250,350 -142,0 -250,-152 -250,-350 0,-198 108,-350 250,-350 z m -250,0 0,0 z m 501,701 0,0 z"
       id="path13" /></g><g
     id="pinkieRightEye"
     transform="translate(-27.970331,-531.43654)"
     style="fill:#483737"><path
       style="fill:#483737;stroke:none"
       inkscape:connector-curvature="0"
       id="path3390"
       d="m 9388,10700 c 142,0 250,152 250,350 0,198 -108,350 -250,350 -142,0 -250,-152 -250,-350 0,-198 108,-350 250,-350 z m -250,0 0,0 z m 501,701 0,0 z" /></g><g
     id="pinkieMouth"
     transform="translate(-27.970331,-531.43654)"><path
       style="fill:none;stroke:#1c1c1c"
       inkscape:connector-curvature="0"
       id="path3603"
       d="m 8538,12000 c -35,60 -75,103 -130,139 -63,42 -125,61 -198,61 -74,0 -136,-19 -199,-61 -52,-35 -91,-75 -126,-132 z" /></g><path
     style="fill:#2ca089"
     d="m 8836.5062,8030.3613 -1019.197,818.5547 1008.007,868.7153 11.19,-8.9848 0,-1678.2852 z"
     id="baseleft"
     inkscape:connector-curvature="0"
     inkscape:transform-center-x="100.84946"
     inkscape:transform-center-y="20.169892" /><path
     style="fill:#1c241f"
     d="m 9043.5973,8030.3614 -1019.197,818.5546 1008.0071,868.7153 11.1899,-8.9848 0,-259.457 -696.5157,-600.2735 696.5157,-559.3732 0,-259.1815 z"
     id="leftTag"
     inkscape:connector-curvature="0" /><path
     style="fill:#2ca089"
     d="m 9640.6692,9717.6312 1019.1978,-818.5547 -1008.0078,-868.7152 -11.19,8.985 0,1678.2849 z"
     id="baseright"
     inkscape:connector-curvature="0"
     inkscape:transform-center-x="-100.84946"
     inkscape:transform-center-y="-20.169842" /><path
     inkscape:connector-curvature="0"
     style="fill:#1c241f"
     d="m 9433.5762,9717.6312 1019.1988,-818.5546 -1008.0088,-868.7153 -11.19,8.985 0,259.457 696.5168,600.2733 -696.5168,559.3737 0,259.181 z"
     id="rightTag" /></svg>